<svg width="130" height="47" viewBox="0 0 130 47" fill="none" xmlns="http://www.w3.org/2000/svg">
<path d="M4.95672 0H0V35.7986H4.95672V22.5177C4.95672 20.2709 5.51557 18.4984 6.63326 17.2502C7.75095 16.002 9.2817 15.353 11.1769 15.353C12.8049 15.353 14.1655 15.9521 15.2589 17.1004C16.3523 18.2738 16.9112 19.7466 16.9112 21.5191V35.8236H21.8922V21.5191C21.8922 18.2238 20.9932 15.6276 19.1951 13.6804C17.3971 11.7332 15.0402 10.7596 12.1731 10.7596C11.347 10.7596 10.5209 10.8594 9.71906 11.0841C8.89294 11.3088 8.2369 11.5584 7.70235 11.833C7.16781 12.1076 6.65756 12.4072 6.1959 12.7567C5.73424 13.1062 5.41838 13.3558 5.27259 13.5056C5.1268 13.6554 5.00532 13.7552 4.95672 13.8301V0Z" fill="#F0145A"/>
<path d="M32.9727 0H27.8628V35.7689H32.9727V0Z" fill="#323264"/>
<path d="M63.1115 25.2933L63.367 22.7383C63.367 19.3148 62.2428 16.4532 59.9434 14.1538C57.6439 11.8544 54.7824 10.7302 51.3588 10.7302C47.9352 10.7302 44.9715 11.9566 42.5188 14.4093C40.0661 16.862 38.8397 19.7746 38.8397 23.2493C38.8397 26.8262 40.1172 29.8921 42.621 32.447C45.1248 35.002 48.1396 36.2794 51.6143 36.2794C52.9429 36.2794 54.1692 36.075 55.3956 35.7173C56.622 35.3086 57.6439 34.8998 58.3593 34.491C59.1258 34.0311 59.8923 33.5201 60.5565 32.958C61.2208 32.3959 61.6807 31.9872 61.8851 31.7317C62.0895 31.4762 62.2428 31.3229 62.345 31.1696L59.0236 27.8482L58.2571 28.8191C57.7461 29.4322 56.8775 30.0454 55.6511 30.7097C54.3736 31.374 53.0451 31.6806 51.6143 31.6806C49.6215 31.6806 47.9352 31.0674 46.5045 29.7899C45.0737 28.5125 44.2051 27.0306 43.9496 25.2933H63.1115ZM51.3588 15.0736C53.2495 15.0736 54.7824 15.6357 56.0599 16.7087C57.2862 17.8329 58.0527 19.2126 58.3593 20.9499H44.154C44.6138 19.2126 45.4314 17.8329 46.7089 16.7087C47.9352 15.6357 49.5193 15.0736 51.3588 15.0736Z" fill="#323264"/>
<path d="M86.9429 34.2866C86.9429 36.5349 86.2786 38.3744 84.899 39.8052C83.5704 41.1849 81.8842 41.9002 79.7891 41.9002C78.8694 41.9002 77.9496 41.7469 77.0809 41.4914C76.2122 41.2359 75.548 40.9294 74.9859 40.5717C74.4238 40.214 73.9128 39.8563 73.4018 39.3964C72.9419 38.9365 72.6354 38.6299 72.4821 38.4766C72.3288 38.3233 72.2266 38.17 72.1244 38.0679L68.803 41.3892L69.2118 41.9002C69.4673 42.2579 69.9271 42.7178 70.5403 43.2288C71.1535 43.6887 71.8689 44.1997 72.6865 44.7106C73.504 45.1705 74.526 45.5793 75.8035 45.937C77.0809 46.2947 78.4095 46.4991 79.7891 46.4991C83.2638 46.4991 86.1253 45.3238 88.5269 42.9733C90.8775 40.5717 92.0527 37.7102 92.0527 34.2355V11.2412H86.9429V13.7961L86.0742 13.0297C85.5121 12.5187 84.6435 12.0077 83.4171 11.4967C82.1907 10.9857 80.8622 10.7302 79.5336 10.7302C76.4166 10.7302 73.7595 11.9055 71.4601 14.3071C69.1607 16.7087 68.0365 19.5702 68.0365 22.9938C68.0365 26.4174 69.1607 29.2789 71.4601 31.6806C73.7595 34.0822 76.4166 35.2574 79.5336 35.2574C80.4023 35.2574 81.2199 35.1552 82.0885 34.9508C82.9061 34.6954 83.5704 34.4399 84.1325 34.1844C84.6946 33.9289 85.2055 33.6223 85.6654 33.2646C86.1253 32.9069 86.483 32.6514 86.5852 32.5492L86.9429 32.1915V34.2866ZM73.1463 22.9938C73.1463 20.8477 73.8106 19.0593 75.1903 17.5774C76.5699 16.0956 78.2051 15.3291 80.0446 15.3291C81.8842 15.3291 83.5193 16.0956 84.899 17.5774C86.2275 19.0593 86.9429 20.8477 86.9429 22.9938C86.9429 25.14 86.2275 26.9284 84.899 28.4103C83.5193 29.8921 81.8842 30.6586 80.0446 30.6586C78.2051 30.6586 76.5699 29.8921 75.1903 28.4103C73.8106 26.9284 73.1463 25.14 73.1463 22.9938Z" fill="#323264"/>
<path d="M118.724 35.7684V19.9279C118.724 17.3219 117.753 15.1247 115.863 13.3873C113.972 11.5989 111.519 10.7302 108.504 10.7302C107.329 10.7302 106.154 10.8835 105.03 11.1901C103.906 11.5478 102.986 11.9055 102.322 12.3143C101.657 12.7231 100.993 13.1829 100.38 13.745C99.7666 14.256 99.409 14.6137 99.2046 14.8181C99.0513 15.0225 98.898 15.1758 98.7958 15.3291L102.117 18.6505L102.781 17.7818C103.19 17.2197 103.906 16.7087 104.979 16.1467C106.052 15.5846 107.227 15.3291 108.504 15.3291C109.986 15.3291 111.213 15.789 112.184 16.6576C113.154 17.5263 113.614 18.6505 113.614 19.9279L104.672 21.4609C102.475 21.8186 100.686 22.6873 99.46 24.0669C98.1826 25.4466 97.5183 27.1328 97.5183 29.1256C97.5183 31.0163 98.3359 32.6514 99.971 34.0822C101.657 35.564 103.701 36.2794 106.205 36.2794C107.074 36.2794 107.891 36.1772 108.709 35.9217C109.578 35.7173 110.242 35.4618 110.804 35.2064C111.366 34.9509 111.877 34.6443 112.337 34.2866C112.797 33.9289 113.103 33.6734 113.308 33.5712C113.461 33.4179 113.563 33.2646 113.614 33.2135V35.7684H118.724ZM106.972 31.6806C105.643 31.6806 104.57 31.374 103.803 30.7608C102.986 30.1476 102.628 29.4322 102.628 28.6147C102.628 27.746 102.884 26.9795 103.446 26.4174C104.008 25.8554 104.774 25.4466 105.694 25.2933L113.614 24.0158V24.5268C113.614 26.8262 113.052 28.5636 111.877 29.841C110.702 31.0674 109.067 31.6806 106.972 31.6806Z" fill="#323264"/>
<path d="M130 0H124.89V35.7689H130V0Z" fill="#323264"/>
</svg>
