<svg width="70" height="25" viewBox="0 0 70 25" fill="none" xmlns="http://www.w3.org/2000/svg">
<path d="M2.64358 0H0V19.0926H2.64358V12.0094C2.64358 10.8111 2.94163 9.86583 3.53774 9.20012C4.13384 8.53441 4.95024 8.18824 5.96102 8.18824C6.82926 8.18824 7.55495 8.50778 8.13809 9.12024C8.72123 9.74601 9.01929 10.5315 9.01929 11.4769V19.1059H11.6758V11.4769C11.6758 9.71938 11.1964 8.3347 10.2374 7.29619C9.27846 6.25768 8.02146 5.73843 6.49233 5.73843C6.05173 5.73843 5.61114 5.79168 5.1835 5.91151C4.7429 6.03134 4.39301 6.16448 4.10792 6.31094C3.82283 6.45739 3.5507 6.61717 3.30448 6.80356C3.05826 6.98996 2.8898 7.12311 2.81205 7.20299C2.73429 7.28288 2.6695 7.33613 2.64358 7.37608V0Z" fill="#F0145A"/>
<path d="M17.5856 0H14.8604V19.0767H17.5856V0Z" fill="#323264"/>
<path d="M33.6598 13.4899L33.796 12.1272C33.796 10.3013 33.1965 8.77518 31.9701 7.54882C30.7438 6.32245 29.2176 5.7229 27.3917 5.7229C25.5658 5.7229 23.9851 6.37696 22.677 7.68508C21.3689 8.9932 20.7148 10.5466 20.7148 12.3998C20.7148 14.3074 21.3962 15.9426 22.7315 17.3052C24.0669 18.6678 25.6748 19.3491 27.528 19.3491C28.2365 19.3491 28.8906 19.2401 29.5446 19.0494C30.1987 18.8313 30.7438 18.6133 31.1253 18.3953C31.5341 18.15 31.9429 17.8775 32.2971 17.5777C32.6514 17.278 32.8967 17.0599 33.0057 16.9237C33.1147 16.7874 33.1965 16.7056 33.251 16.6239L31.4796 14.8525L31.0708 15.3703C30.7983 15.6973 30.335 16.0243 29.6809 16.3786C28.9996 16.7329 28.291 16.8964 27.528 16.8964C26.4651 16.8964 25.5658 16.5694 24.8027 15.8881C24.0396 15.2068 23.5764 14.4164 23.4401 13.4899H33.6598ZM27.3917 8.03936C28.4 8.03936 29.2176 8.33914 29.8989 8.91144C30.553 9.511 30.9618 10.2468 31.1253 11.1734H23.5491C23.7944 10.2468 24.2304 9.511 24.9117 8.91144C25.5658 8.33914 26.4106 8.03936 27.3917 8.03936Z" fill="#323264"/>
<path d="M46.3695 18.2863C46.3695 19.4854 46.0153 20.4665 45.2794 21.2296C44.5709 21.9654 43.6715 22.3469 42.5542 22.3469C42.0637 22.3469 41.5731 22.2651 41.1098 22.1289C40.6465 21.9926 40.2922 21.8291 39.9925 21.6383C39.6927 21.4476 39.4202 21.2568 39.1476 21.0115C38.9024 20.7663 38.7389 20.6027 38.6571 20.521C38.5753 20.4392 38.5208 20.3575 38.4663 20.303L36.6949 22.0744L36.9129 22.3469C37.0492 22.5377 37.2945 22.7829 37.6215 23.0555C37.9485 23.3007 38.3301 23.5733 38.7661 23.8458C39.2021 24.0911 39.7472 24.3091 40.4285 24.4998C41.1098 24.6906 41.8184 24.7996 42.5542 24.7996C44.4074 24.7996 45.9335 24.1728 47.2144 22.9192C48.468 21.6383 49.0948 20.1122 49.0948 18.259V5.99543H46.3695V7.35805L45.9062 6.94926C45.6065 6.67674 45.1432 6.40421 44.4891 6.13169C43.8351 5.85916 43.1265 5.7229 42.4179 5.7229C40.7555 5.7229 39.3384 6.34971 38.112 7.63057C36.8857 8.91144 36.2861 10.4376 36.2861 12.2635C36.2861 14.0894 36.8857 15.6155 38.112 16.8964C39.3384 18.1773 40.7555 18.8041 42.4179 18.8041C42.8812 18.8041 43.3173 18.7496 43.7806 18.6406C44.2166 18.5043 44.5709 18.368 44.8707 18.2318C45.1704 18.0955 45.443 17.932 45.6882 17.7412C45.9335 17.5505 46.1243 17.4142 46.1788 17.3597L46.3695 17.1689V18.2863ZM39.0114 12.2635C39.0114 11.1189 39.3657 10.1651 40.1015 9.37473C40.8373 8.58441 41.7094 8.17562 42.6905 8.17562C43.6715 8.17562 44.5436 8.58441 45.2794 9.37473C45.988 10.1651 46.3695 11.1189 46.3695 12.2635C46.3695 13.4081 45.988 14.3619 45.2794 15.1523C44.5436 15.9426 43.6715 16.3514 42.6905 16.3514C41.7094 16.3514 40.8373 15.9426 40.1015 15.1523C39.3657 14.3619 39.0114 13.4081 39.0114 12.2635Z" fill="#323264"/>
<path d="M63.3195 19.0766V10.6283C63.3195 9.23847 62.8017 8.06661 61.7934 7.14003C60.7851 6.18619 59.4769 5.7229 57.869 5.7229C57.2422 5.7229 56.6154 5.80466 56.0159 5.96817C55.4163 6.15894 54.9258 6.34971 54.5715 6.56773C54.2172 6.78575 53.8629 7.03102 53.5359 7.3308C53.2089 7.60332 53.0181 7.79409 52.9091 7.9031C52.8273 8.01211 52.7456 8.09387 52.6911 8.17562L54.4625 9.94703L54.8168 9.48374C55.0348 9.18397 55.4163 8.91144 55.9886 8.61166C56.5609 8.31189 57.1877 8.17562 57.869 8.17562C58.6594 8.17562 59.3134 8.4209 59.8312 8.88419C60.349 9.34748 60.5943 9.94703 60.5943 10.6283L55.8251 11.4459C54.6533 11.6367 53.6994 12.1 53.0454 12.8358C52.364 13.5716 52.0098 14.4709 52.0098 15.5338C52.0098 16.5421 52.4458 17.4142 53.3179 18.1773C54.2172 18.9676 55.3073 19.3491 56.6427 19.3491C57.106 19.3491 57.542 19.2946 57.9781 19.1584C58.4413 19.0494 58.7956 18.9131 59.0954 18.7768C59.3952 18.6406 59.6677 18.4771 59.913 18.2863C60.1582 18.0955 60.3218 17.9593 60.4308 17.9048C60.5125 17.823 60.567 17.7412 60.5943 17.714V19.0766H63.3195ZM57.0515 16.8964C56.3429 16.8964 55.7706 16.7329 55.3618 16.4059C54.9258 16.0788 54.735 15.6973 54.735 15.2613C54.735 14.798 54.8713 14.3892 55.1711 14.0894C55.4708 13.7896 55.8796 13.5716 56.3702 13.4899L60.5943 12.8085V13.0811C60.5943 14.3074 60.2945 15.234 59.6677 15.9153C59.0409 16.5694 58.1688 16.8964 57.0515 16.8964Z" fill="#323264"/>
<path d="M69.3337 0H66.6084V19.0767H69.3337V0Z" fill="#323264"/>
</svg>
